<svg xmlns="http://www.w3.org/2000/svg" height="67" viewBox="0 0 210.32 168"><defs><style>.cls-1{fill:#ffe3d9;}</style></defs><title>Varlık 10</title><g id="katman_2" data-name="katman 2"><g id="katman_1-2" data-name="katman 1"><path class="cls-1" d="M210.32,7.77A61.54,61.54,0,0,0,202.37,4q-10.53-4-26.93-4Q141.3,0,124.63,18.51T108,83.34a167.55,167.55,0,0,0,3.27,34.4q3.27,15.57,9.14,24.55a53.68,53.68,0,0,0,20.73,19.17Q153.72,168,174.22,168q22,0,36.1-7.41ZM193.45,117.13q-2.38,10.43-7.43,15.24a16.63,16.63,0,0,1-11.91,4.82q-10.41,0-15.9-11.36t-5.49-42.38q0-30.71,5-42.06T173.89,30q11,0,16.46,11.14t5.48,43.49Q195.83,106.73,193.45,117.13Z"/><path class="cls-1" d="M94.65,0V168H48.23V57.92A141.79,141.79,0,0,1,26.42,71.77,169.17,169.17,0,0,1,0,81.92V44.28q23.43-7.55,36.39-18.14A74,74,0,0,0,56.68,0Z"/></g></g></svg>