<svg xmlns="http://www.w3.org/2000/svg" height="67" viewBox="0 0 106 167.67"><defs><style>.cls-1{fill:#ffe3d9;}</style></defs><title>Varlık 2</title><g id="katman_2" data-name="katman 2"><g id="katman_1-2" data-name="katman 1"><path class="cls-1" d="M59.38,86.88q-33,24.47-45,42.43A86.26,86.26,0,0,0,0,167.67H106V130.26H66q6.3-6.18,11-10t18.54-13.41c3.77-2.66,7.24-5.26,10.45-7.81V4.55Q96.15.94,81.08,0H59.59q-15.92,1-26,5.48A46,46,0,0,0,13.3,22.15Q6.09,33,3.38,52.41l46,3.71q1.92-14,7.5-19.49t14.36-5.52a19.48,19.48,0,0,1,14,5.35,17.24,17.24,0,0,1,5.58,12.9q0,7-5.64,14.76T59.38,86.88Z"/></g></g></svg>