<svg xmlns="http://www.w3.org/2000/svg" height="67" viewBox="0 0 100.87 167.94"><defs><style>.cls-1{fill:#ffe3d9;}</style></defs><title>Varlık 3</title><g id="katman_2" data-name="katman 2"><g id="katman_1-2" data-name="katman 1"><path class="cls-1" d="M100.87,5.45Q88.76.5,70.09,0H61.75Q36.91.74,22.88,10.8,7.76,21.66,2.44,42.05L45.1,49.69q1.78-12.07,6.76-16.9t13-4.82Q72.59,28,77,32.41c3,3,4.43,6.91,4.43,11.85a17.88,17.88,0,0,1-5.93,13.41,20.58,20.58,0,0,1-14.79,5.65,43,43,0,0,1-5.88-.55L52.53,95q9.3-2.65,14.63-2.66,10,0,15.79,6.2t5.82,17.51q0,11.09-6,17.73a19.57,19.57,0,0,1-15.13,6.65q-8.64,0-14.24-5.26T45.1,116.3l-45.1,6q4.44,15.18,12.69,25.21a52.15,52.15,0,0,0,21.05,15.24q12.81,5.21,35,5.21,19.22,0,32.16-5.05Z"/></g></g></svg>