<svg xmlns="http://www.w3.org/2000/svg" height="67" viewBox="0 0 110.6 167.51"><defs><style>.cls-1{fill:#ffe3d9;}</style></defs><title>Varlık 5</title><g id="katman_2" data-name="katman 2"><g id="katman_1-2" data-name="katman 1"><path class="cls-1" d="M110.6,60.88Q98.23,54.21,81.69,54.2A63.34,63.34,0,0,0,66.87,56a78.64,78.64,0,0,0-15.15,5.41l3.94-24.79H110.6V0H20.51L6,88.79l39.1,5.63q5.52-6.19,10.14-8.56a27.18,27.18,0,0,1,12.85-3.27q10.47,0,16.78,6.87t6.31,21.64q0,14.43-6.25,21.69a20,20,0,0,1-15.83,7.27,20.85,20.85,0,0,1-14.76-5.81q-6.2-5.81-7.89-17L0,122.37a72.71,72.71,0,0,0,8.45,19.38,55,55,0,0,0,13.24,13.91,56.82,56.82,0,0,0,19.83,9.24,92.35,92.35,0,0,0,15.79,2.61H80.46Q96,166,106.87,160.23c1.29-.69,2.52-1.42,3.73-2.18Z"/></g></g></svg>