<svg xmlns="http://www.w3.org/2000/svg" height="67" viewBox="0 0 104.38 167.76"><defs><style>.cls-1{fill:#ffe3d9;}</style></defs><title>Varlık 6</title><g id="katman_2" data-name="katman 2"><g id="katman_1-2" data-name="katman 1"><path class="cls-1" d="M104.38,61.5a50.32,50.32,0,0,0-22.26-4.89,46.7,46.7,0,0,0-19.73,3.93A57.47,57.47,0,0,0,45.77,72.68q2.1-26.16,6.54-34.13Q58.4,27.47,69.37,27.46a14.47,14.47,0,0,1,10.25,3.88q4.16,3.89,5.93,13.3l18.83-2.32V6c-1.27-.63-2.57-1.23-3.92-1.77Q91.79.79,78.28,0H63.14Q35.09,1.91,18.51,20.21,0,40.66,0,84.65q0,30,8.81,48.26t23.55,26.54q14.73,8.31,39.12,8.31,19.67,0,32.9-6.43ZM70.26,139.61A21,21,0,0,1,54,132.13q-6.64-7.48-6.65-20.67,0-13,6.37-19.94a20.5,20.5,0,0,1,15.79-7,19.55,19.55,0,0,1,15.41,7.2q6.19,7.2,6.2,20.94,0,13.41-6,20.17A19,19,0,0,1,70.26,139.61Z"/></g></g></svg>