<svg xmlns="http://www.w3.org/2000/svg" height="67" viewBox="0 0 100.37 167.77"><defs><style>.cls-1{fill:#ffe3d9;}</style></defs><title>Varlık 8</title><g id="katman_2" data-name="katman 2"><g id="katman_1-2" data-name="katman 1"><path class="cls-1" d="M100.37,5.83Q86,0,63.72,0,39.12,0,24.16,10,5,22.95,5,43.33a37.34,37.34,0,0,0,6.65,21.94q4.88,7,15.51,12.63Q13.29,83.35,6.65,93.25T0,117.47A50.56,50.56,0,0,0,7.09,144a44.54,44.54,0,0,0,20.73,18q11,4.92,29.91,5.87H75a112.62,112.62,0,0,0,18.15-2.49,68.35,68.35,0,0,0,7.23-2ZM52.58,32.64q5.16-5.16,13.36-5.16a17.89,17.89,0,0,1,13.29,5.27Q84.45,38,84.44,46.43q0,8.1-5,13.19a17.08,17.08,0,0,1-12.75,5.1q-8.74,0-14-5.16T47.43,46Q47.43,37.79,52.58,32.64ZM81,133.37q-6.44,6.93-14.52,6.93-8.41,0-15-6.82T45,115.92q0-11.31,6.26-18a19.58,19.58,0,0,1,14.69-6.65q8.53,0,15,6.87t6.49,17.62Q87.44,126.45,81,133.37Z"/></g></g></svg>