<svg xmlns="http://www.w3.org/2000/svg" height="67" viewBox="0 0 105.03 167.89"><defs><style>.cls-1{fill:#ffe3d9;}</style></defs><title>Varlık 9</title><g id="katman_2" data-name="katman 2"><g id="katman_1-2" data-name="katman 1"><path class="cls-1" d="M105,156.62V10.56c-1.15-.78-2.32-1.51-3.52-2.19Q86.77,0,62.39,0,42.11,0,28.7,6.82a49.87,49.87,0,0,0-21,20.11A58,58,0,0,0,0,56.41Q0,80.13,15,95.64t36.84,15.51a47.19,47.19,0,0,0,19.73-3.88A55.54,55.54,0,0,0,88.21,95.08Q86,121.24,81.56,129.32q-6.09,11-17,11a14.68,14.68,0,0,1-10.31-3.88q-4.21-3.88-6-13.3L3.44,128.77a59.43,59.43,0,0,0,11.41,21.61,47.32,47.32,0,0,0,18.62,13.13q9.45,3.8,24.76,4.38H68.64Q90.09,166.9,105,156.62ZM80.23,76.24a20.44,20.44,0,0,1-15.84,7A19.36,19.36,0,0,1,49,76q-6.15-7.2-6.15-20.83t5.93-20.28a19,19,0,0,1,14.9-6.76A20.85,20.85,0,0,1,79.9,35.63q6.64,7.47,6.65,20.67Q86.55,69.26,80.23,76.24Z"/></g></g></svg>