<?xml version="1.0" encoding="UTF-8"?>
<svg id="katman_2" data-name="katman 2" xmlns="http://www.w3.org/2000/svg" xmlns:xlink="http://www.w3.org/1999/xlink" viewBox="0 0 72 72" width="20">
  <defs>
    <style>
      .cls-1 {
        fill: #c01718;
      }

      .cls-2, .cls-3, .cls-4 {
        fill: none;
      }

      .cls-5 {
        clip-path: url(#clippath-1);
      }

      .cls-3, .cls-4 {
        clip-rule: evenodd;
      }

      .cls-6 {
        fill: #f8f6f2;
        fill-rule: evenodd;
      }

      .cls-7 {
        clip-path: url(#clippath-2);
      }

      .cls-4 {
        clip-path: url(#clippath);
      }
    </style>
    <clipPath id="clippath">
      <polygon class="cls-3" points="0 72 72 72 72 0 0 0 0 72 0 72"/>
    </clipPath>
    <clipPath id="clippath-1">
      <polygon class="cls-4" points="0 0 72 0 72 72 0 72 0 0 0 0"/>
    </clipPath>
    <clipPath id="clippath-2">
      <polygon class="cls-2" points="0 72 72 72 72 0 0 0 0 72 0 72"/>
    </clipPath>
  </defs>
  <g id="katman_1" data-name="katman 1">
    <g>
      <path class="cls-6" d="M11.28,35.94c0-13.69,11.09-24.78,24.78-24.78s24.78,11.09,24.78,24.78-11.09,24.78-24.78,24.78-24.78-11.09-24.78-24.78h0Z"/>
      <g class="cls-5">
        <g class="cls-7">
          <path class="cls-1" d="M36.31,8.15c-15.55,0-28.15,12.6-28.15,28.15s12.6,28.15,28.15,28.15,28.15-12.6,28.15-28.15h0c0-15.54-12.59-28.14-28.13-28.15h-.02ZM49.36,38.81h-26.12v-5.01h26.12v5.01h0Z"/>
        </g>
      </g>
    </g>
  </g>
</svg>