<?xml version="1.0" encoding="UTF-8"?>
<svg id="katman_2" xmlns="http://www.w3.org/2000/svg" xmlns:xlink="http://www.w3.org/1999/xlink" viewBox="0 0 100 150">
  <defs>
    <style>
      .cls-1 {
        fill: url(#Adsız_degrade_17);
      }

      .cls-2 {
        fill: coral;
      }

      .cls-3 {
        fill: #fff;
        stroke: #000;
        stroke-miterlimit: 10;
        stroke-width: .25px;
      }
    </style>
    <linearGradient id="Adsız_degrade_17" data-name="Adsız degrade 17" x1="50" y1="0" x2="50" y2="150" gradientUnits="userSpaceOnUse">
      <stop offset="0" stop-color="#fff"/>
      <stop offset="1" stop-color="#cadceb"/>
    </linearGradient>
  </defs>
  <g id="katman_1">
    <g>
      <rect class="cls-1" width="100" height="150"/>
      <g>
        <path class="cls-2" d="M34.73,57.95c-5.5-.56-8.37-5-8.63-8.5-.31-3.75,1.75-7.56,5.19-9.19,2.25-1.06,4.56-1.25,6.88-.5,2.31.75,4.13,2.25,5.38,4.44.25-6.69,4.81-10.75,9.94-11.44,5-.62,9.62,1.88,11.75,6.37,1.37,2.94,1.5,5.94.31,9-1.13,3-3.25,5.13-6.31,6.44.69.19,1.19.37,1.75.56,2.94,1.12,4.75,3.25,5.75,6.12.19.56.37,1.06.5,1.62.12.56-.06.94-.62,1-1.62.25-3.31.44-4.94.62-.44,0-.75-.13-.81-.56-.5-2.19-2.13-2.87-4.12-2.94-1.38-.06-2.81-.13-4.19,0-3.62.25-7.19.69-10.75,1.44-1,.25-2,.56-2.94.94-1.25.5-2,1.5-2.06,2.81-.06,1.62-.06,3.31,0,4.94.19,2.31.56,4.56,1.25,6.81,0,.19.13.31.19.5.62,1.75,1.88,2.62,3.69,2.75h2.94c0,1.5.13,3,.13,4.63.56-.56,1-1,1.44-1.44,1.19-1.19,2.31-2.38,3.5-3.5.19-.19.5-.31.75-.37,2.56-.5,5.13-1,7.69-1.5.62-.12,1.25-.5,1.88-.75,1.25-.56,1.81-1.56,1.88-2.87q.06-1.19,1.31-1.31c1.44-.19,2.87-.37,4.31-.56.62-.06.94.19.94.75.06,2.75-.37,5.31-2.19,7.44-1.19,1.44-2.75,2.38-4.44,3.06-2.75,1.06-5.56,1.69-8.44,2.06-2.87.37-5.81.75-8.69.94-2.06.19-4.06.06-6.06-.5-2.75-.81-4.69-2.56-6-5.06-1-1.88-1.5-3.87-1.88-5.94-.62-3.25-1-6.5-.81-9.87.19-3.5,1.44-6.44,4.44-8.5,0,0,0-.06.06-.13l.06.19ZM57.67,43.7c-.19-1.44-1.5-2.5-2.94-2.31s-2.5,1.56-2.31,3c.19,1.5,1.5,2.5,3,2.31,1.5-.19,2.5-1.5,2.31-3h-.06ZM35.67,51.14c1.38-.13,2.37-1.38,2.25-2.75-.13-1.38-1.38-2.37-2.75-2.25-1.37.13-2.38,1.38-2.25,2.75.12,1.44,1.31,2.38,2.75,2.25ZM50.05,54.45c-1-.81-2.13-1.5-3-2.37s-1.56-1.94-2.31-2.88c-.62,3.19-.5,3.19-2.94,6.31l8.19-1.06h.06Z"/>
        <path class="cls-2" d="M73.92,74.83c-.88-.81-1.75-1.5-2.56-2.25-.44-.37-.88-.81-1.37-1.19-.37-.31-.56-.69-.62-1.19-.12-1.12-.31-2.31-.44-3.44,0-.19,0-.44.06-.56,1-1.56,2.06-3.06,3.19-4.69.56,4.5,1.13,8.81,1.69,13.31h.06Z"/>
      </g>
      <g>
        <path class="cls-3" d="M17.26,101.6c0,.75-.56,1.33-1.28,1.33q-.28,0-.99-.26c-.41-.15-.88-.24-1.28-.24-.84,0-1.44.43-1.44,1.03,0,.28.15.56.39.71q.34.24,1.54.56c2.76.75,3.94,1.93,3.94,3.96,0,1.09-.39,2.14-1.07,2.87-.79.86-2.1,1.33-3.69,1.33-2.49,0-4.26-.88-4.26-2.12,0-.75.56-1.37,1.24-1.37q.36,0,1.73.53c.43.17.97.28,1.41.28.96,0,1.58-.53,1.58-1.31,0-.39-.17-.71-.49-.9-.36-.24-.62-.34-1.99-.75-1.46-.43-2.04-.71-2.57-1.24-.52-.51-.81-1.31-.81-2.27,0-2.33,1.93-3.99,4.61-3.99,2.01,0,3.43.77,3.43,1.86Z"/>
        <path class="cls-3" d="M19.49,101.78c0-.69.04-.86.19-1.2.23-.41.73-.71,1.26-.71s1.03.3,1.24.71c.17.34.19.49.19,1.2v9.06c0,.69-.04.86-.19,1.2-.22.41-.73.71-1.24.71s-1.03-.3-1.26-.71c-.17-.34-.19-.49-.19-1.2v-9.06ZM22.31,97.38c0,.77-.62,1.39-1.37,1.39s-1.39-.62-1.39-1.39.62-1.37,1.41-1.37c.73,0,1.35.62,1.35,1.37Z"/>
        <path class="cls-3" d="M27,110.84c0,.69-.04.86-.19,1.2-.23.41-.73.71-1.24.71s-1.03-.3-1.26-.71c-.17-.34-.19-.49-.19-1.2v-9.51c0-.88.56-1.46,1.42-1.46.51,0,.81.17,1.18.64l5.53,6.96v-5.68c0-.69.04-.86.19-1.2.22-.41.73-.71,1.26-.71s1.03.3,1.24.71c.17.34.19.49.19,1.2v9.32c0,.62-.09.9-.39,1.22-.26.3-.58.43-.98.43-.36,0-.64-.11-.9-.36q-.11-.09-.58-.67l-5.29-6.73v5.85Z"/>
        <path class="cls-3" d="M39.84,105.01h2.4c.62,0,.77.02,1.07.17.38.19.64.66.64,1.11s-.26.94-.64,1.12c-.3.15-.45.17-1.07.17h-2.4v2.42h2.68c.62,0,.77.02,1.07.17.38.19.64.66.64,1.11s-.26.94-.64,1.12c-.3.15-.43.17-1.07.17h-3.47c-1.5.08-2.16-.58-2.08-2.08v-8.35c0-.86.06-1.11.3-1.44.34-.45.77-.64,1.42-.64h3.83c.62,0,.77.02,1.07.17.38.19.64.66.64,1.11s-.26.94-.64,1.12c-.3.15-.43.17-1.07.17h-2.68v2.38Z"/>
        <path class="cls-3" d="M57.24,106.3c0,3.9-2.49,6.58-6.13,6.58s-6.23-2.64-6.23-6.69c0-2.01.73-3.77,2.04-4.91,1.16-1.01,2.57-1.54,4.14-1.54,3.66,0,6.17,2.66,6.17,6.56ZM47.94,106.19c0,2.51,1.22,4.13,3.15,4.13s3.09-1.59,3.09-4.01-1.22-3.99-3.09-3.99-3.15,1.58-3.15,3.88Z"/>
        <path class="cls-3" d="M61.31,110.84c0,.69-.04.86-.19,1.2-.23.41-.73.71-1.24.71s-1.03-.3-1.26-.71c-.17-.34-.19-.49-.19-1.2v-9.06c0-.69.04-.86.19-1.2.22-.41.73-.71,1.26-.71s1.03.3,1.24.71c.17.34.19.49.19,1.2v3.21l3.69-4.14c.67-.75,1.03-.98,1.56-.98.75,0,1.33.6,1.33,1.39,0,.56-.15.83-.84,1.54l-3.02,3.06,3.81,4.03c.69.73.83.98.83,1.52,0,.81-.52,1.35-1.33,1.35-.62,0-.88-.15-1.59-.94l-4.43-4.86v3.88Z"/>
        <path class="cls-3" d="M79.97,107.07c0,1.86-.24,2.74-1.01,3.73-1.01,1.31-2.64,2.08-4.44,2.08-3.09,0-5.42-2.18-5.42-5.06v-6.04c0-.69.04-.86.19-1.2.23-.41.73-.71,1.26-.71s1.03.3,1.24.71c.17.34.19.49.19,1.2v5.63c0,1.69,1.01,2.79,2.57,2.79.81,0,1.59-.38,2.04-.98.38-.51.53-1.13.53-2.16v-5.29c0-.69.04-.86.19-1.2.22-.41.73-.71,1.26-.71s1.03.3,1.24.71c.17.34.19.49.19,1.2v5.29Z"/>
        <path class="cls-3" d="M84.46,110.84c0,.69-.04.86-.19,1.2-.23.41-.73.71-1.24.71s-1.03-.3-1.26-.71c-.17-.34-.19-.49-.19-1.2v-8.7c0-.88.06-1.11.3-1.44.34-.45.77-.64,1.42-.64h2.91c2.64,0,4.37,1.52,4.37,3.88,0,1.01-.34,1.93-.98,2.53-.49.47-.94.68-1.95.9l2.44,2.7c.54.6.69.88.69,1.29,0,.77-.66,1.41-1.44,1.41-.51,0-.83-.21-1.37-.9l-3.53-4.39v3.36ZM86.24,105.48c.9,0,1.54-.58,1.54-1.41s-.69-1.52-1.59-1.52h-1.72v2.93h1.78Z"/>
      </g>
    </g>
  </g>
</svg>