<?xml version="1.0" encoding="UTF-8"?>
<svg id="katman_2" xmlns="http://www.w3.org/2000/svg" xmlns:xlink="http://www.w3.org/1999/xlink" viewBox="0 0 160 240">
  <defs>
    <style>
      .cls-1 {
        fill: url(#Adsız_degrade_17);
      }

      .cls-2 {
        fill: coral;
      }

      .cls-3 {
        fill: #fff;
        stroke: #000;
        stroke-miterlimit: 10;
        stroke-width: .25px;
      }
    </style>
    <linearGradient id="Adsız_degrade_17" data-name="Adsız degrade 17" x1="80" y1="0" x2="80" y2="240" gradientUnits="userSpaceOnUse">
      <stop offset="0" stop-color="#fff"/>
      <stop offset="1" stop-color="#cadceb"/>
    </linearGradient>
  </defs>
  <g id="katman_1">
    <g>
      <rect class="cls-1" width="160" height="240"/>
      <g>
        <path class="cls-2" d="M55.57,92.73c-8.8-.9-13.4-8-13.8-13.6-.5-6,2.8-12.1,8.3-14.7,3.6-1.7,7.3-2,11-.8,3.7,1.2,6.6,3.6,8.6,7.1.4-10.7,7.7-17.2,15.9-18.3,8-1,15.4,3,18.8,10.2,2.2,4.7,2.4,9.5.5,14.4-1.8,4.8-5.2,8.2-10.1,10.3,1.1.3,1.9.6,2.8.9,4.7,1.8,7.6,5.2,9.2,9.8.3.9.6,1.7.8,2.6.2.9-.1,1.5-1,1.6-2.6.4-5.3.7-7.9,1-.7,0-1.2-.2-1.3-.9-.8-3.5-3.4-4.6-6.6-4.7-2.2-.1-4.5-.2-6.7,0-5.8.4-11.5,1.1-17.2,2.3-1.6.4-3.2.9-4.7,1.5-2,.8-3.2,2.4-3.3,4.5-.1,2.6-.1,5.3,0,7.9.3,3.7.9,7.3,2,10.9,0,.3.2.5.3.8,1,2.8,3,4.2,5.9,4.4h4.7c0,2.4.2,4.8.2,7.4.9-.9,1.6-1.6,2.3-2.3,1.9-1.9,3.7-3.8,5.6-5.6.3-.3.8-.5,1.2-.6,4.1-.8,8.2-1.6,12.3-2.4,1-.2,2-.8,3-1.2,2-.9,2.9-2.5,3-4.6q.1-1.9,2.1-2.1c2.3-.3,4.6-.6,6.9-.9,1-.1,1.5.3,1.5,1.2.1,4.4-.6,8.5-3.5,11.9-1.9,2.3-4.4,3.8-7.1,4.9-4.4,1.7-8.9,2.7-13.5,3.3-4.6.6-9.3,1.2-13.9,1.5-3.3.3-6.5.1-9.7-.8-4.4-1.3-7.5-4.1-9.6-8.1-1.6-3-2.4-6.2-3-9.5-1-5.2-1.6-10.4-1.3-15.8.3-5.6,2.3-10.3,7.1-13.6,0,0,0-.1.1-.2l.1.3ZM92.27,69.93c-.3-2.3-2.4-4-4.7-3.7s-4,2.5-3.7,4.8c.3,2.4,2.4,4,4.8,3.7,2.4-.3,4-2.4,3.7-4.8h-.1ZM57.07,81.83c2.2-.2,3.8-2.2,3.6-4.4-.2-2.2-2.2-3.8-4.4-3.6-2.2.2-3.8,2.2-3.6,4.4.2,2.3,2.1,3.8,4.4,3.6ZM80.07,87.13c-1.6-1.3-3.4-2.4-4.8-3.8s-2.5-3.1-3.7-4.6c-1,5.1-.8,5.1-4.7,10.1l13.1-1.7h.1Z"/>
        <path class="cls-2" d="M118.27,119.73c-1.4-1.3-2.8-2.4-4.1-3.6-.7-.6-1.4-1.3-2.2-1.9-.6-.5-.9-1.1-1-1.9-.2-1.8-.5-3.7-.7-5.5,0-.3,0-.7.1-.9,1.6-2.5,3.3-4.9,5.1-7.5.9,7.2,1.8,14.1,2.7,21.3h.1Z"/>
      </g>
      <g>
        <path class="cls-3" d="M27.62,162.55c0,1.2-.9,2.13-2.04,2.13q-.45,0-1.59-.42c-.66-.24-1.41-.39-2.04-.39-1.35,0-2.31.69-2.31,1.65,0,.45.24.9.63,1.14q.54.39,2.46.9c4.41,1.2,6.3,3.09,6.3,6.33,0,1.74-.63,3.42-1.71,4.59-1.26,1.38-3.36,2.13-5.91,2.13-3.99,0-6.81-1.41-6.81-3.39,0-1.2.9-2.19,1.98-2.19q.57,0,2.76.84c.69.27,1.56.45,2.25.45,1.53,0,2.52-.84,2.52-2.1,0-.63-.27-1.14-.78-1.44-.57-.39-.99-.54-3.18-1.2-2.34-.69-3.27-1.14-4.11-1.98-.84-.81-1.29-2.1-1.29-3.63,0-3.72,3.09-6.39,7.38-6.39,3.21,0,5.49,1.23,5.49,2.97Z"/>
        <path class="cls-3" d="M31.19,162.85c0-1.11.06-1.38.3-1.92.36-.66,1.17-1.14,2.01-1.14s1.65.48,1.98,1.14c.27.54.3.78.3,1.92v14.49c0,1.11-.06,1.38-.3,1.92-.36.66-1.17,1.14-1.98,1.14s-1.65-.48-2.01-1.14c-.27-.54-.3-.78-.3-1.92v-14.49ZM35.69,155.8c0,1.23-.99,2.22-2.19,2.22s-2.22-.99-2.22-2.22.99-2.19,2.25-2.19c1.17,0,2.16.99,2.16,2.19Z"/>
        <path class="cls-3" d="M43.19,177.35c0,1.11-.06,1.38-.3,1.92-.36.66-1.17,1.14-1.98,1.14s-1.65-.48-2.01-1.14c-.27-.54-.3-.78-.3-1.92v-15.21c0-1.41.9-2.34,2.28-2.34.81,0,1.29.27,1.89,1.02l8.85,11.13v-9.09c0-1.11.06-1.38.3-1.92.36-.66,1.17-1.14,2.01-1.14s1.65.48,1.98,1.14c.27.54.3.78.3,1.92v14.91c0,.99-.15,1.44-.63,1.95-.42.48-.93.69-1.56.69-.57,0-1.02-.18-1.44-.57q-.18-.15-.93-1.08l-8.46-10.77v9.36Z"/>
        <path class="cls-3" d="M63.74,168.01h3.84c.99,0,1.23.03,1.71.27.6.3,1.02,1.05,1.02,1.77s-.42,1.5-1.02,1.8c-.48.24-.72.27-1.71.27h-3.84v3.87h4.29c.99,0,1.23.03,1.71.27.6.3,1.02,1.05,1.02,1.77s-.42,1.5-1.02,1.8c-.48.24-.69.27-1.71.27h-5.55c-2.4.12-3.45-.93-3.33-3.33v-13.35c0-1.38.09-1.77.48-2.31.54-.72,1.23-1.02,2.28-1.02h6.12c.99,0,1.23.03,1.71.27.6.3,1.02,1.05,1.02,1.77s-.42,1.5-1.02,1.8c-.48.24-.69.27-1.71.27h-4.29v3.81Z"/>
        <path class="cls-3" d="M91.58,170.09c0,6.24-3.99,10.53-9.81,10.53s-9.96-4.23-9.96-10.71c0-3.21,1.17-6.03,3.27-7.86,1.86-1.62,4.11-2.46,6.63-2.46,5.85,0,9.87,4.26,9.87,10.5ZM76.7,169.91c0,4.02,1.95,6.6,5.04,6.6s4.95-2.55,4.95-6.42-1.95-6.39-4.95-6.39-5.04,2.52-5.04,6.21Z"/>
        <path class="cls-3" d="M98.09,177.35c0,1.11-.06,1.38-.3,1.92-.36.66-1.17,1.14-1.98,1.14s-1.65-.48-2.01-1.14c-.27-.54-.3-.78-.3-1.92v-14.49c0-1.11.06-1.38.3-1.92.36-.66,1.17-1.14,2.01-1.14s1.65.48,1.98,1.14c.27.54.3.78.3,1.92v5.13l5.91-6.63c1.08-1.2,1.65-1.56,2.49-1.56,1.2,0,2.13.96,2.13,2.22,0,.9-.24,1.32-1.35,2.46l-4.83,4.89,6.09,6.45c1.11,1.17,1.32,1.56,1.32,2.43,0,1.29-.84,2.16-2.13,2.16-.99,0-1.41-.24-2.55-1.5l-7.08-7.77v6.21Z"/>
        <path class="cls-3" d="M127.94,171.32c0,2.97-.39,4.38-1.62,5.97-1.62,2.1-4.23,3.33-7.11,3.33-4.95,0-8.67-3.48-8.67-8.1v-9.66c0-1.11.06-1.38.3-1.92.36-.66,1.17-1.14,2.01-1.14s1.65.48,1.98,1.14c.27.54.3.78.3,1.92v9c0,2.7,1.62,4.47,4.11,4.47,1.29,0,2.55-.6,3.27-1.56.6-.81.84-1.8.84-3.45v-8.46c0-1.11.06-1.38.3-1.92.36-.66,1.17-1.14,2.01-1.14s1.65.48,1.98,1.14c.27.54.3.78.3,1.92v8.46Z"/>
        <path class="cls-3" d="M135.14,177.35c0,1.11-.06,1.38-.3,1.92-.36.66-1.17,1.14-1.98,1.14s-1.65-.48-2.01-1.14c-.27-.54-.3-.78-.3-1.92v-13.92c0-1.41.09-1.77.48-2.31.54-.72,1.23-1.02,2.28-1.02h4.65c4.23,0,6.99,2.43,6.99,6.21,0,1.62-.54,3.09-1.56,4.05-.78.75-1.5,1.08-3.12,1.44l3.9,4.32c.87.96,1.11,1.41,1.11,2.07,0,1.23-1.05,2.25-2.31,2.25-.81,0-1.32-.33-2.19-1.44l-5.64-7.02v5.37ZM137.99,168.76c1.44,0,2.46-.93,2.46-2.25s-1.11-2.43-2.55-2.43h-2.76v4.68h2.85Z"/>
      </g>
    </g>
  </g>
</svg>