<?xml version="1.0" encoding="UTF-8"?>
<svg id="katman_2" xmlns="http://www.w3.org/2000/svg" xmlns:xlink="http://www.w3.org/1999/xlink" viewBox="0 0 72 72">
  <defs>
    <style>
      .cls-1, .cls-2, .cls-3 {
        fill: none;
      }

      .cls-4 {
        clip-path: url(#clippath-1);
      }

      .cls-5 {
        fill: #ef7d53;
      }

      .cls-2, .cls-3 {
        clip-rule: evenodd;
      }

      .cls-6 {
        clip-path: url(#clippath-2);
      }

      .cls-3 {
        clip-path: url(#clippath);
      }
    </style>
    <clipPath id="clippath">
      <polygon class="cls-2" points="0 72 72 72 72 0 0 0 0 72 0 72"/>
    </clipPath>
    <clipPath id="clippath-1">
      <polygon class="cls-3" points="0 0 72 0 72 72 0 72 0 0 0 0"/>
    </clipPath>
    <clipPath id="clippath-2">
      <polygon class="cls-1" points="0 72 72 72 72 0 0 0 0 72 0 72"/>
    </clipPath>
  </defs>
  <g id="katman_1">
    <g class="cls-4">
      <g class="cls-6">
        <path class="cls-5" d="M36.31,8.15c-15.55,0-28.15,12.6-28.15,28.15s12.6,28.15,28.15,28.15,28.15-12.6,28.15-28.15c0-15.54-12.58-28.14-28.12-28.15h-.03ZM36.31,50.4s-13.69-10.47-13.69-18.92c0-5.64,8.62-11.68,13.69-1.61,5.07-10.07,13.69-4.03,13.69,1.61,0,8.45-13.69,18.92-13.69,18.92h0Z"/>
      </g>
    </g>
  </g>
</svg>