<?xml version="1.0" encoding="UTF-8"?>
<svg id="katman_2" xmlns="http://www.w3.org/2000/svg" xmlns:xlink="http://www.w3.org/1999/xlink" viewBox="0 0 72 72" width="30">
  <defs>
    <style>
      .cls-1 {
        fill: #f8f6f2;
      }

      .cls-2, .cls-3, .cls-4 {
        fill: none;
      }

      .cls-5 {
        clip-path: url(#clippath-1);
      }

      .cls-6 {
        fill: #ef7d53;
      }

      .cls-3, .cls-4 {
        clip-rule: evenodd;
      }

      .cls-7 {
        clip-path: url(#clippath-2);
      }

      .cls-4 {
        clip-path: url(#clippath);
      }
    </style>
    <clipPath id="clippath">
      <polygon class="cls-3" points="0 72 72 72 72 0 0 0 0 72 0 72"/>
    </clipPath>
    <clipPath id="clippath-1">
      <polygon class="cls-4" points="0 0 72 0 72 72 0 72 0 0 0 0"/>
    </clipPath>
    <clipPath id="clippath-2">
      <polygon class="cls-2" points="0 72 72 72 72 0 0 0 0 72 0 72"/>
    </clipPath>
  </defs>
  <g id="katman_1">
    <g>
      <circle class="cls-1" cx="36" cy="36" r="27.63"/>
      <g class="cls-5">
        <g class="cls-7">
          <path class="cls-6" d="M44.65,23.89c-1.54-.37-5.29-.6-8.35,4.44-3.06-5.04-6.8-4.8-8.34-4.44-3.46.93-5.92,4-6.09,7.58,0,8.72,13.41,19.07,13.98,19.51l.45.34.45-.34c.57-.44,13.98-10.79,13.98-19.51-.16-3.58-2.62-6.65-6.08-7.58h0ZM36.31,49.45c-2.34-1.88-12.95-10.83-12.95-17.98.16-2.89,2.15-5.36,4.95-6.14.39-.09.78-.14,1.18-.14,2.36,0,4.52,1.74,6.16,5l.66,1.31.66-1.31c1.92-3.81,4.53-5.53,7.34-4.86,2.79.78,4.78,3.24,4.95,6.14,0,7.15-10.61,16.1-12.94,17.98h0Z"/>
          <path class="cls-6" d="M36.3,8.15c-15.55,0-28.15,12.6-28.15,28.15s12.6,28.15,28.15,28.15,28.15-12.6,28.15-28.15c0-15.54-12.58-28.14-28.12-28.15h-.03ZM36.3,62.97c-14.73,0-26.67-11.94-26.67-26.67s11.94-26.67,26.67-26.67,26.67,11.94,26.67,26.67c-.02,14.72-11.95,26.65-26.67,26.67h0Z"/>
        </g>
      </g>
    </g>
  </g>
</svg>