<?xml version="1.0" encoding="UTF-8"?>
<svg id="katman_2" xmlns="http://www.w3.org/2000/svg" viewBox="0 0 56.98 56.98" width="24">
  <defs>
    <style>
      .cls-1 {
        fill: #f8f6f2;
      }

      .cls-2 {
        fill: #ef7d53;
      }
    </style>
  </defs>
  <g id="katman_1">
    <circle class="cls-2" cx="28.49" cy="28.49" r="28.49"/>
    <g>
      <path class="cls-1" d="M28.67,17.47c7.2.34,12.7,3.61,16.2,10.13.33.62.34,1.24,0,1.85-3.28,6.1-8.34,9.65-15.28,10.01-7.83.41-13.65-3.04-17.45-9.9-.39-.7-.39-1.35,0-2.06,3.02-5.62,7.66-8.93,13.99-9.83.79-.11,1.6-.14,2.54-.22ZM29.01,20.16c-.94.08-1.88.11-2.8.25-5.04.76-8.8,3.41-11.34,7.8-.09.16-.1.47,0,.63,2.9,4.87,7.15,7.75,12.84,8.01,6.29.28,11.04-2.56,14.32-7.89.13-.21.15-.64.02-.83-.73-1.06-1.43-2.17-2.31-3.1-2.89-3.06-6.51-4.61-10.72-4.87Z"/>
      <path class="cls-1" d="M26.75,22.39c2.71-.93,5.72.29,7.33,2.95,1.49,2.46.99,5.8-1.19,7.92-2.1,2.03-5.51,2.26-8.09.53-2.5-1.67-3.2-4.63-2.46-6.95,1.41.59,2.73.47,3.82-.66,1.08-1.11,1.21-2.41.58-3.79Z"/>
    </g>
  </g>
</svg>