<?xml version="1.0" encoding="UTF-8"?>
<svg id="katman_2" xmlns="http://www.w3.org/2000/svg" viewBox="0 0 57 57" width="24">
  <defs>
    <style>
      .cls-1 {
        fill: #f8f6f2;
      }

      .cls-2, .cls-3 {
        fill: #ef7d53;
      }

      .cls-3 {
        fill-rule: evenodd;
      }
    </style>
  </defs>
  <g id="katman_1">
    <circle class="cls-1" cx="28.5" cy="28.5" r="28.49"/>
    <path class="cls-3" d="M28.51,0C12.77,0,0,12.75,0,28.49c0,15.74,12.75,28.5,28.49,28.51,15.74,0,28.5-12.75,28.51-28.49h0C57.01,12.77,44.26,0,28.53,0h-.02ZM28.51,55.5c-14.91,0-27-12.08-27.01-26.99,0-14.91,12.08-27,26.99-27.01,14.91,0,27,12.08,27.01,26.99h0c-.01,14.91-12.09,26.99-26.99,27.01h0Z"/>
    <g>
      <path class="cls-2" d="M11.53,43.29c1.05-.78,2.12-1.53,3.16-2.33,10.55-8.23,21.08-16.47,31.62-24.7.38-.29.88-.64.62-1.13-.28-.54-.77-1-1.25-1.38-.14-.11-.64.08-.88.26-4.03,3.12-8.04,6.27-12.06,9.41-7.39,5.77-14.78,11.54-22.17,17.3-.7.55-.78,1-.2,1.67.3.34.69.61,1.04.91h.12Z"/>
      <path class="cls-2" d="M15.02,33.64c.79-.61,1.46-1.14,2.11-1.65-.71-.99-1.39-1.96-2.1-2.91-.32-.44-.3-.8,0-1.26,2.45-3.89,5.85-6.43,10.37-7.41,1.98-.43,3.97-.43,5.96-.03.24.05.57.03.76-.1.78-.56,1.52-1.17,2.43-1.88-1.07-.28-1.99-.59-2.93-.75-8.01-1.43-15.97,3.01-19.39,9.6-.45.87-.5,1.68.06,2.48.79,1.14,1.59,2.28,2.38,3.42.11.16.22.32.35.5Z"/>
      <path class="cls-2" d="M41.89,23.32c-.71.55-1.38,1.07-2.08,1.62.57.74,1.16,1.41,1.65,2.16,1.05,1.63,1.09,1.12,0,2.73-2.28,3.36-5.4,5.58-9.36,6.56-2.12.53-4.26.61-6.41.13-.37-.08-.67-.04-.97.22-.69.57-1.41,1.11-2.12,1.66,0,.07,0,.13,0,.2,1.17.27,2.33.63,3.51.79,7.5,1,15.1-2.99,18.65-9.7.46-.87.52-1.67-.04-2.48-.77-1.13-1.56-2.25-2.35-3.37-.12-.17-.29-.31-.47-.5Z"/>
      <path class="cls-2" d="M22.09,28.13c2.58-2.02,5.07-3.96,7.59-5.93-2.87-.93-7.38,1.5-7.59,5.93Z"/>
      <path class="cls-2" d="M27.26,34.74c3.7.91,7.71-2.36,7.55-5.9-2.51,1.96-4.99,3.9-7.55,5.9Z"/>
    </g>
  </g>
</svg>