<?xml version="1.0" encoding="UTF-8"?>
<svg id="katman_2" xmlns="http://www.w3.org/2000/svg" xmlns:xlink="http://www.w3.org/1999/xlink" viewBox="0 0 72 72" width="30">
  <defs>
    <style>
      .cls-1 {
        fill: #f8f6f2;
      }

      .cls-2, .cls-3, .cls-4 {
        fill: none;
      }

      .cls-5 {
        clip-path: url(#clippath-1);
      }

      .cls-6 {
        fill: #ef7d53;
      }

      .cls-3, .cls-4 {
        clip-rule: evenodd;
      }

      .cls-7 {
        clip-path: url(#clippath-2);
      }

      .cls-4 {
        clip-path: url(#clippath);
      }
    </style>
    <clipPath id="clippath">
      <polygon class="cls-3" points="0 72 72 72 72 0 0 0 0 72 0 72"/>
    </clipPath>
    <clipPath id="clippath-1">
      <polygon class="cls-4" points="0 0 72 0 72 72 0 72 0 0 0 0"/>
    </clipPath>
    <clipPath id="clippath-2">
      <polygon class="cls-2" points="0 72 72 72 72 0 0 0 0 72 0 72"/>
    </clipPath>
  </defs>
  <g id="katman_1">
    <g>
      <circle class="cls-1" cx="36" cy="36.35" r="27.63"/>
      <g class="cls-5">
        <g class="cls-7">
          <path class="cls-6" d="M36.31,8.15c-15.55,0-28.15,12.6-28.15,28.15s12.6,28.15,28.15,28.15,28.15-12.6,28.15-28.15h0c0-15.54-12.59-28.14-28.13-28.15h-.02ZM50.1,38.81h-11.29v11.29h-5.01v-11.29h-11.29v-5.01h11.29v-11.29h5.01v11.29h11.29v5.01h0Z"/>
        </g>
      </g>
    </g>
  </g>
</svg>