<?xml version="1.0" encoding="UTF-8"?>
<svg id="katman_2" xmlns="http://www.w3.org/2000/svg" xmlns:xlink="http://www.w3.org/1999/xlink" viewBox="0 0 72 72">
  <defs>
    <style>
      .cls-1, .cls-2, .cls-3 {
        fill: none;
      }

      .cls-4 {
        clip-path: url(#clippath-1);
      }

      .cls-5 {
        fill: #ef7d53;
      }

      .cls-2, .cls-3 {
        clip-rule: evenodd;
      }

      .cls-6 {
        clip-path: url(#clippath-2);
      }

      .cls-3 {
        clip-path: url(#clippath);
      }
    </style>
    <clipPath id="clippath">
      <polygon class="cls-2" points="0 72 72 72 72 0 0 0 0 72 0 72"/>
    </clipPath>
    <clipPath id="clippath-1">
      <polygon class="cls-3" points="0 0 72 0 72 72 0 72 0 0 0 0"/>
    </clipPath>
    <clipPath id="clippath-2">
      <polygon class="cls-1" points="0 72 72 72 72 0 0 0 0 72 0 72"/>
    </clipPath>
  </defs>
  <g id="katman_1">
    <g class="cls-4">
      <g class="cls-6">
        <path class="cls-5" d="M36.32,8.15c-15.56,0-28.17,12.6-28.18,28.16,0,15.56,12.6,28.18,28.16,28.18,15.56,0,28.17-12.6,28.18-28.16h0c0-15.56-12.59-28.17-28.14-28.18h-.02ZM36.32,63.01c-14.74,0-26.69-11.94-26.7-26.68,0-14.74,11.94-26.69,26.68-26.7,14.74,0,26.69,11.94,26.7,26.68h0c-.01,14.74-11.95,26.68-26.68,26.7h0Z"/>
        <polygon class="cls-5" points="36.69 23.36 35.2 23.36 35.2 35.58 22.98 35.58 22.98 37.06 35.2 37.06 35.2 49.3 36.69 49.3 36.69 37.06 48.91 37.06 48.91 35.58 36.69 35.58 36.69 23.36 36.69 23.36 36.69 23.36"/>
      </g>
    </g>
  </g>
</svg>