<?xml version="1.0" encoding="UTF-8"?>
<svg id="katman_2" xmlns="http://www.w3.org/2000/svg" xmlns:xlink="http://www.w3.org/1999/xlink" viewBox="0 0 72 72" width="26">
  <defs>
    <style>
      .cls-1, .cls-2, .cls-3 {
        fill: none;
      }

      .cls-4 {
        clip-path: url(#clippath-1);
      }

      .cls-5 {
        fill: #ef7d53;
      }

      .cls-2, .cls-3 {
        clip-rule: evenodd;
      }

      .cls-6 {
        clip-path: url(#clippath-2);
      }

      .cls-3 {
        clip-path: url(#clippath);
      }
    </style>
    <clipPath id="clippath">
      <polygon class="cls-2" points="0 72 72 72 72 0 0 0 0 72 0 72"/>
    </clipPath>
    <clipPath id="clippath-1">
      <polygon class="cls-3" points="0 0 72 0 72 72 0 72 0 0 0 0"/>
    </clipPath>
    <clipPath id="clippath-2">
      <polygon class="cls-1" points="0 72 72 72 72 0 0 0 0 72 0 72"/>
    </clipPath>
  </defs>
  <g id="katman_1">
    <g class="cls-4">
      <g class="cls-6">
        <polygon class="cls-5" points="65.96 28.91 43.73 28.91 36.32 6.67 28.9 28.91 6.67 28.91 23.72 43.73 17.05 65.96 36.32 52.62 55.58 65.96 48.91 43.73 65.96 28.91 65.96 28.91"/>
      </g>
    </g>
  </g>
</svg>