<svg width="21" height="21" xmlns="http://www.w3.org/2000/svg" xmlns:xlink="http://www.w3.org/1999/xlink" xml:space="preserve" overflow="hidden"><g transform="translate(-892 -71)"><path d="M902.497 73.1875C897.908 73.1874 894.188 76.907 894.188 81.4954 894.188 86.0839 897.908 89.8036 902.496 89.8037 907.085 89.8039 910.805 86.0843 910.805 81.4958 910.805 81.4956 910.805 81.4953 910.805 81.495 910.806 76.9086 907.09 73.1892 902.503 73.1875 902.501 73.1875 902.499 73.1875 902.497 73.1875ZM906.209 84.162 905.163 85.2078 902.497 82.541 899.831 85.2074 898.785 84.1615 901.45 81.495 898.784 78.8286 899.831 77.7828 902.497 80.45 905.163 77.7828 906.209 78.8286 903.543 81.495Z" fill="#C00000"/></g></svg>