<svg width="41" height="41" xmlns="http://www.w3.org/2000/svg" xmlns:xlink="http://www.w3.org/1999/xlink" xml:space="preserve" overflow="hidden"><g transform="translate(-1173 -47)"><path d="M1193.49 51.2708C1184.54 51.2708 1177.27 58.5329 1177.27 67.491 1177.27 76.4492 1184.54 83.7112 1193.49 83.7112 1202.45 83.7112 1209.71 76.4492 1209.71 67.491 1209.71 67.4905 1209.71 67.4899 1209.71 67.4893 1209.72 58.5352 1202.46 51.2739 1193.51 51.2708 1193.5 51.2708 1193.5 51.2708 1193.49 51.2708ZM1201.45 68.935 1194.94 68.935 1194.94 75.4412 1192.05 75.4412 1192.05 68.9333 1185.54 68.9333 1185.54 66.0454 1192.05 66.0454 1192.05 59.5375 1194.94 59.5375 1194.94 66.0454 1201.45 66.0454Z" fill="#70AD47"/></g></svg>