<svg width="40" height="41" xmlns="http://www.w3.org/2000/svg" xmlns:xlink="http://www.w3.org/1999/xlink" xml:space="preserve" overflow="hidden"><g transform="translate(-1214 -47)"><path d="M19.9937 4.16667C11.2538 4.16644 4.16858 11.2513 4.16833 19.9912 4.16808 28.7312 11.253 35.8164 19.9929 35.8167 28.7328 35.8169 35.8181 28.732 35.8183 19.9921 35.8183 19.9915 35.8183 19.991 35.8183 19.9904 35.8215 11.2544 28.7422 4.16987 20.0062 4.16667 20.0021 4.16666 19.9979 4.16666 19.9937 4.16667ZM27.0646 25.0704 25.0725 27.0625 19.9937 21.9829 14.9167 27.0617 12.9246 25.0696 18 19.9904 12.9225 14.9117 14.9167 12.9196 19.9937 18 25.0725 12.9196 27.0646 14.9117 21.9858 19.9904Z" fill="#C00000" transform="matrix(1 0 0 1.025 1214 47)"/></g></svg>