<?xml version="1.0" encoding="UTF-8"?>
<svg id="katman_2" xmlns="http://www.w3.org/2000/svg" xmlns:xlink="http://www.w3.org/1999/xlink" viewBox="0 0 72 72" width="30">
  <defs>
    <style>
      .cls-1 {
        fill: #f8f6f2;
      }

      .cls-2, .cls-3, .cls-4 {
        fill: none;
      }

      .cls-5 {
        clip-path: url(#clippath-1);
      }

      .cls-6 {
        fill: #ef7d53;
      }

      .cls-3, .cls-4 {
        clip-rule: evenodd;
      }

      .cls-7 {
        clip-path: url(#clippath-2);
      }

      .cls-4 {
        clip-path: url(#clippath);
      }
    </style>
    <clipPath id="clippath">
      <polygon class="cls-3" points="0 72 72 72 72 0 0 0 0 72 0 72"/>
    </clipPath>
    <clipPath id="clippath-1">
      <polygon class="cls-4" points="0 0 72 0 72 72 0 72 0 0 0 0"/>
    </clipPath>
    <clipPath id="clippath-2">
      <polygon class="cls-2" points="0 72 72 72 72 0 0 0 0 72 0 72"/>
    </clipPath>
  </defs>
  <g id="katman_1">
    <g>
      <circle class="cls-1" cx="36" cy="36" r="27.63"/>
      <g class="cls-5">
        <g class="cls-7">
          <path class="cls-6" d="M36.32,8.15c-15.56,0-28.17,12.6-28.18,28.16,0,15.56,12.6,28.18,28.16,28.18,15.56,0,28.17-12.6,28.18-28.16h0c0-15.56-12.59-28.17-28.14-28.18h-.02ZM36.32,63.01c-14.74,0-26.69-11.94-26.7-26.68,0-14.74,11.94-26.69,26.68-26.7,14.74,0,26.69,11.94,26.7,26.68h0c-.01,14.74-11.95,26.68-26.68,26.7h0Z"/>
          <polygon class="cls-6" points="31.5 45.27 22.23 36.01 21.19 37.06 31.5 47.37 53.3 25.57 52.25 24.52 31.5 45.27 31.5 45.27 31.5 45.27"/>
        </g>
      </g>
    </g>
  </g>
</svg>