<?xml version="1.0" encoding="UTF-8"?>
<svg id="katman_2" xmlns="http://www.w3.org/2000/svg" xmlns:xlink="http://www.w3.org/1999/xlink" viewBox="0 0 72 72" width="30">
  <defs>
    <style>
      .cls-1 {
        fill: #f8f6f2;
      }

      .cls-2, .cls-3, .cls-4 {
        fill: none;
      }

      .cls-5 {
        clip-path: url(#clippath-1);
      }

      .cls-6 {
        fill: #ef7d53;
      }

      .cls-3, .cls-4 {
        clip-rule: evenodd;
      }

      .cls-7 {
        clip-path: url(#clippath-2);
      }

      .cls-4 {
        clip-path: url(#clippath);
      }
    </style>
    <clipPath id="clippath">
      <polygon class="cls-3" points="0 72 72 72 72 0 0 0 0 72 0 72"/>
    </clipPath>
    <clipPath id="clippath-1">
      <polygon class="cls-4" points="0 0 72 0 72 72 0 72 0 0 0 0"/>
    </clipPath>
    <clipPath id="clippath-2">
      <polygon class="cls-2" points="0 72 72 72 72 0 0 0 0 72 0 72"/>
    </clipPath>
  </defs>
  <g id="katman_1">
    <g>
      <circle class="cls-1" cx="36" cy="36.44" r="27.63"/>
      <g class="cls-5">
        <g class="cls-7">
          <path class="cls-6" d="M36.3,8.15c-15.55,0-28.15,12.6-28.15,28.15s12.6,28.15,28.15,28.15,28.15-12.6,28.15-28.15h0c0-15.54-12.59-28.14-28.13-28.15h-.02ZM43.12,37.65c-4.1,4.09-8.23,8.22-12.38,12.39-3.53-3.54-7.06-7.08-10.61-10.61l3.54-3.54,7.06,7.06c3.43-3.48,6.84-6.93,10.23-10.36,3.39-3.43,5.26-5.27,8.78-8.66.1-.1.2-.2.32-.3.11-.09.21-.2.3-.32l3.59,3.54c-4.17,4.15-6.73,6.7-10.84,10.79h0Z"/>
        </g>
      </g>
    </g>
  </g>
</svg>